<svg xmlns="http://www.w3.org/2000/svg" xmlns:xlink="http://www.w3.org/1999/xlink" version="1.1" x="0px" y="0px" viewBox="0 0 100 100" enable-background="new 0 0 100 100" xml:space="preserve">
    <g fill="#FFFFFF">
    <path d="M32.262,82.861c2.769,1.199,5.351,2.338,7.302,2.3l0.064-0.001l0.063,0.016c0.135,0.033,13.746,3.247,23.301-6.964  c3.417-3.651,11.228-9.022,12.871-10.137c-0.783-2.959-1.319-3.529-1.342-3.553l-0.097-0.117c-0.16-0.27-0.396-0.417-0.739-0.464  c-3.032-0.418-11.214,6.657-14.116,9.418l-0.256-0.269c-0.012,0.298-0.099,0.55-0.189,0.735c-1.42,2.907-11.211,4.873-13.619,4.375  c-1.25-0.259-2.399-0.831-3.512-1.383c-1.443-0.718-2.809-1.396-4.176-1.27l-0.092-0.996c1.643-0.151,3.206,0.622,4.713,1.371  c1.055,0.524,2.146,1.066,3.27,1.299c2.262,0.473,11.398-1.543,12.518-3.834c0.143-0.292,0.215-0.705-0.494-1.308  c-1.99-1.69-4.253-1.937-6.873-2.222c-2.526-0.275-5.39-0.587-8.451-2.32c-6.813-3.856-13.179-5.922-16.613-5.393  c-2.235,0.344-7.595,3.371-11.643,5.813l5.074,11.826C23.604,79.125,28.268,81.13,32.262,82.861z M29.904,74.406  c2.172-0.131,3.751,0.015,3.817,0.022c0.275,0.026,0.477,0.27,0.451,0.544c-0.024,0.259-0.242,0.453-0.498,0.453  c-0.016,0-0.031,0-0.047-0.002c-0.016-0.001-1.572-0.144-3.664-0.019c-0.304,0.015-0.513-0.194-0.529-0.469  C29.418,74.659,29.628,74.422,29.904,74.406z"></path><path d="M16.336,80.658l-4.771-11.116c-0.956,0.597-1.705,1.075-2.112,1.336l4.56,11.287C14.765,81.527,15.542,81.037,16.336,80.658  z"></path><path d="M82.029,21.824l4.77,11.116c0.957-0.596,1.706-1.074,2.113-1.335l-4.561-11.288C83.601,20.955,82.823,21.444,82.029,21.824z  "></path><path d="M40.634,30.403c1.989,1.69,4.252,1.937,6.872,2.222c2.526,0.275,5.39,0.587,8.452,2.32  c6.812,3.857,13.171,5.925,16.612,5.393c2.235-0.344,7.595-3.371,11.644-5.814L79.14,22.699c-4.378,0.659-9.041-1.347-13.036-3.078  c-2.769-1.199-5.385-2.342-7.302-2.3l-0.064,0.001l-0.063-0.016c-0.137-0.034-13.748-3.246-23.302,6.964  c-3.417,3.651-11.228,9.022-12.87,10.137c0.782,2.958,1.318,3.528,1.342,3.552l0.097,0.117c0.16,0.27,0.396,0.417,0.739,0.465  c3.016,0.398,11.212-6.658,14.115-9.418l0.256,0.269c0.012-0.298,0.099-0.551,0.189-0.735c1.421-2.909,11.222-4.872,13.62-4.375  c1.25,0.259,2.398,0.831,3.51,1.383c1.445,0.718,2.813,1.395,4.177,1.27l0.092,0.996c-1.653,0.151-3.208-0.622-4.713-1.37  c-1.055-0.524-2.146-1.066-3.269-1.299c-0.223-0.046-0.513-0.068-0.855-0.068c-3.127,0-10.653,1.837-11.663,3.903  C39.996,29.388,39.923,29.8,40.634,30.403z"></path><path d="M64.737,27.059c0.016,0.002,1.574,0.143,3.665,0.02c0.274-0.008,0.512,0.194,0.528,0.469  c0.017,0.276-0.193,0.513-0.47,0.529c-0.666,0.04-1.276,0.054-1.804,0.054c-1.195,0-1.968-0.071-2.014-0.076  c-0.274-0.026-0.477-0.27-0.451-0.544S64.466,27.028,64.737,27.059z"></path><path d="M56.081,59.712c2.03-4.529,5.814-18.51-21.21-24.266c0,0,1.445,27.641,17.092,27.641L45.433,49.92l8.487,9.631  c0.366,1.346,2.188,6.326,9.486,8.496l0.57-1.917C58.591,64.529,56.698,61.271,56.081,59.712z"></path>
    </g>
</svg>